<svg xmlns="http://www.w3.org/2000/svg" viewBox="41 64 321 256" fill-rule="evenodd">
<path fill="#143C82" d="M239 68L240 68L240 69L244 69L244 70L247 70L247 71L255 72L255 73L260 73L260 74L267 74L267 75L275 75L275 76L291 76L291 77L312 77L312 78L317 78L317 79L323 80L323 81L327 82L328 84L330 84L330 85L331 85L331 86L333 87L333 89L334 89L334 91L335 91L335 93L336 93L336 96L337 96L337 105L336 105L336 108L333 108L333 107L332 107L332 106L331 106L331 105L330 105L330 104L328 103L327 99L324 99L324 100L319 100L319 99L318 99L318 98L316 97L316 95L315 95L315 93L316 93L316 91L315 91L315 90L307 90L307 89L306 89L306 91L307 91L307 92L308 92L308 93L310 94L310 97L311 97L311 99L312 99L312 101L313 101L314 103L316 103L316 104L318 104L318 105L324 105L324 106L326 106L325 108L322 108L322 109L311 109L311 108L307 107L306 105L304 105L304 103L302 102L302 100L301 100L301 98L300 98L300 95L299 95L299 89L285 89L285 88L278 88L278 87L272 87L272 86L268 86L268 85L265 85L265 84L259 83L259 82L255 81L255 80L253 80L253 79L249 78L249 77L248 77L248 76L246 76L245 74L243 74L243 73L242 73L242 72L241 72L241 71L239 70ZM236 93L273 93L273 94L280 94L280 95L283 95L283 96L286 96L286 97L289 97L289 98L293 99L293 100L294 100L294 101L296 101L296 102L297 102L297 103L298 103L298 104L299 104L300 106L298 106L298 105L294 105L294 104L289 104L289 103L277 103L277 102L268 102L268 103L255 103L255 104L247 104L247 105L241 105L241 106L229 107L229 108L224 108L224 109L220 109L220 110L215 110L215 111L212 111L212 110L211 110L211 108L210 108L210 106L209 106L209 104L208 104L208 102L207 102L207 98L210 98L210 97L215 97L215 96L221 96L221 95L227 95L227 94L236 94ZM192 101L194 101L194 103L195 103L195 105L196 105L196 107L197 107L197 110L199 111L199 115L197 115L197 116L194 116L194 117L190 117L190 118L187 118L187 119L185 119L185 120L181 121L181 122L180 122L180 123L179 123L178 125L174 126L173 128L171 128L171 129L169 129L169 130L166 130L166 131L164 131L164 132L162 132L162 133L160 133L160 134L158 134L158 135L156 135L156 136L153 136L153 137L151 137L151 138L149 138L149 139L147 139L147 140L144 140L144 141L142 141L142 142L140 142L140 143L138 143L138 144L135 144L135 145L133 145L133 146L131 146L131 147L128 147L128 148L126 148L126 149L123 149L123 150L121 150L121 151L119 151L119 152L116 152L116 153L114 153L114 154L111 154L111 155L109 155L109 156L106 156L106 157L104 157L104 158L98 159L98 160L96 160L96 161L93 161L93 162L90 162L90 163L84 163L84 164L72 164L72 163L67 163L67 162L64 162L64 161L62 161L62 160L59 160L58 158L54 157L54 156L53 156L53 155L52 155L52 154L51 154L51 153L50 153L50 152L49 152L49 151L48 151L48 150L47 150L47 149L45 148L45 145L47 145L47 144L49 144L49 143L52 143L52 142L55 142L55 141L61 140L61 139L63 139L63 138L66 138L66 137L69 137L69 136L72 136L72 135L75 135L75 134L78 134L78 133L81 133L81 132L84 132L84 131L87 131L87 130L90 130L90 129L93 129L93 128L96 128L96 127L99 127L99 126L102 126L102 125L106 125L106 124L109 124L109 123L112 123L112 122L115 122L115 121L118 121L118 120L122 120L122 119L125 119L125 118L129 118L129 117L132 117L132 116L136 116L136 115L140 115L140 114L143 114L143 113L151 112L151 111L154 111L154 110L158 110L158 109L162 109L162 108L166 108L166 107L170 107L170 106L175 106L175 105L179 105L179 104L183 104L183 103L187 103L187 102L192 102ZM292 119L303 119L303 120L313 120L313 121L317 121L317 122L320 122L320 123L324 123L324 124L326 124L326 125L328 125L328 126L330 126L330 127L334 128L335 130L337 130L337 131L338 131L338 132L339 132L340 134L338 134L338 133L337 133L336 131L333 131L333 130L331 130L331 129L328 129L328 128L325 128L325 127L321 127L321 126L312 126L312 125L309 125L309 126L299 126L299 127L294 127L294 128L286 129L286 130L280 131L280 132L278 132L278 133L275 133L275 134L273 134L273 135L271 135L271 136L268 136L268 137L266 137L266 138L264 138L264 139L262 139L262 140L260 140L260 141L256 142L255 144L253 144L253 145L249 146L248 148L244 149L244 150L243 150L243 151L241 151L241 152L240 152L240 151L239 151L239 150L238 150L238 149L237 149L237 148L236 148L236 147L234 146L234 144L233 144L233 143L232 143L232 141L231 141L232 139L234 139L234 138L236 138L236 137L238 137L238 136L240 136L240 135L242 135L242 134L244 134L244 133L246 133L246 132L249 132L249 131L251 131L251 130L253 130L253 129L255 129L255 128L261 127L261 126L263 126L263 125L266 125L266 124L269 124L269 123L273 123L273 122L277 122L277 121L282 121L282 120L292 120ZM329 135L331 135L331 136L338 136L338 138L329 138L329 139L325 139L325 140L319 141L319 142L317 142L317 143L315 143L315 144L311 145L310 147L308 147L308 148L307 148L306 150L304 150L304 151L303 151L303 152L302 152L302 153L301 153L301 154L300 154L300 155L299 155L299 156L298 156L298 157L297 157L297 158L296 158L296 159L295 159L295 160L294 160L294 161L293 161L293 162L291 163L291 165L290 165L290 166L289 166L289 167L288 167L288 168L287 168L287 169L285 170L285 172L284 172L284 173L283 173L283 174L281 175L281 177L280 177L280 178L278 179L278 181L276 182L276 184L273 184L273 183L271 183L271 182L270 182L270 181L269 181L268 179L266 179L266 178L264 177L264 174L265 174L265 173L266 173L266 171L267 171L267 170L268 170L268 169L270 168L270 166L271 166L271 165L272 165L272 164L273 164L273 163L274 163L274 162L275 162L275 161L276 161L276 160L277 160L277 159L278 159L278 158L279 158L279 157L280 157L280 156L281 156L282 154L284 154L284 153L285 153L285 152L286 152L287 150L289 150L289 149L290 149L291 147L293 147L294 145L296 145L296 144L298 144L298 143L300 143L300 142L302 142L302 141L305 141L305 140L307 140L307 139L310 139L310 138L314 138L314 137L318 137L318 136L329 136ZM220 148L221 148L221 149L222 149L222 150L224 151L224 153L225 153L225 154L226 154L226 155L228 156L228 158L229 158L230 160L229 160L229 161L227 161L227 162L226 162L225 164L223 164L223 165L222 165L222 166L221 166L221 167L220 167L220 168L219 168L219 169L218 169L218 170L216 171L216 174L215 174L215 176L213 177L213 179L212 179L212 180L210 181L210 183L209 183L209 184L208 184L208 185L207 185L207 186L206 186L206 187L205 187L205 188L204 188L204 189L203 189L203 190L202 190L202 191L201 191L201 192L200 192L200 193L199 193L199 194L198 194L198 195L197 195L197 196L196 196L196 197L195 197L195 198L194 198L194 199L193 199L193 200L192 200L192 201L191 201L191 202L190 202L190 203L189 203L189 204L188 204L188 205L187 205L187 206L186 206L185 208L184 208L184 209L182 209L182 210L181 210L181 211L180 211L180 212L179 212L179 213L178 213L178 214L177 214L177 215L176 215L176 216L175 216L175 217L174 217L174 218L173 218L173 219L172 219L172 220L171 220L170 222L168 222L168 223L167 223L167 224L166 224L166 225L165 225L165 226L164 226L164 227L163 227L163 228L162 228L162 229L161 229L161 230L160 230L159 232L157 232L157 233L156 233L156 234L155 234L155 235L154 235L154 236L153 236L153 237L152 237L152 238L151 238L150 240L148 240L148 241L147 241L146 243L142 244L142 245L141 245L141 246L139 246L139 247L133 248L133 249L129 249L129 250L117 250L117 249L109 248L109 236L110 236L110 231L111 231L111 228L112 228L112 226L113 226L113 224L114 224L115 220L116 220L116 219L118 218L118 216L119 216L119 215L120 215L120 214L121 214L122 212L124 212L124 211L125 211L125 210L126 210L126 209L127 209L128 207L130 207L130 206L131 206L132 204L134 204L134 203L135 203L136 201L138 201L138 200L139 200L140 198L142 198L142 197L143 197L144 195L146 195L147 193L149 193L149 192L150 192L151 190L153 190L154 188L156 188L156 187L157 187L158 185L160 185L161 183L163 183L164 181L166 181L166 180L167 180L168 178L170 178L171 176L173 176L174 174L176 174L177 172L179 172L180 170L182 170L183 168L185 168L186 166L188 166L188 165L189 165L189 164L191 164L192 162L194 162L194 161L197 161L197 160L200 160L200 159L203 159L203 158L207 158L207 157L209 157L209 156L210 156L211 154L213 154L213 153L214 153L215 151L217 151L217 150L218 150L218 149L220 149ZM255 187L258 187L258 188L259 188L260 190L262 190L262 191L263 191L263 192L264 192L264 193L265 193L265 194L267 195L267 198L266 198L266 200L265 200L265 202L264 202L264 204L263 204L263 206L262 206L262 208L261 208L261 210L260 210L260 212L259 212L259 214L258 214L258 216L257 216L257 218L256 218L256 220L255 220L255 222L254 222L254 224L253 224L253 226L252 226L252 229L251 229L251 231L250 231L250 233L249 233L249 236L248 236L248 238L247 238L247 240L246 240L246 243L245 243L245 245L244 245L244 247L243 247L242 253L241 253L241 255L240 255L240 258L239 258L239 260L238 260L237 266L236 266L236 268L235 268L235 271L234 271L234 274L233 274L233 277L232 277L232 280L231 280L231 283L230 283L230 286L229 286L229 289L228 289L228 292L227 292L227 296L226 296L226 299L225 299L225 302L224 302L224 306L223 306L223 310L222 310L222 313L221 313L221 317L219 317L219 316L217 316L217 315L216 315L216 314L215 314L215 313L214 313L214 312L213 312L213 311L212 311L212 310L211 310L211 309L209 308L209 306L207 305L207 303L206 303L206 301L205 301L205 299L204 299L204 297L203 297L203 293L202 293L202 288L201 288L201 279L202 279L202 273L203 273L204 267L205 267L205 265L206 265L206 263L207 263L207 261L208 261L208 259L209 259L210 255L211 255L212 251L214 250L214 248L215 248L215 246L216 246L216 244L217 244L218 240L220 239L220 237L221 237L221 235L222 235L222 233L223 233L224 229L226 228L226 226L227 226L228 222L230 221L230 219L231 219L232 215L233 215L233 214L235 213L235 211L236 211L236 210L237 210L237 209L238 209L238 208L239 208L239 207L240 207L240 206L241 206L241 205L242 205L243 203L245 203L246 201L248 201L248 200L249 200L249 198L250 198L251 194L253 193L253 191L254 191Z"></path>
<path fill="#E8881C" d="M273 107L282 107L282 108L293 108L293 109L298 109L298 110L301 110L301 111L304 111L304 112L306 112L306 113L310 114L311 116L306 116L306 115L297 115L297 114L285 114L285 115L276 115L276 116L270 116L270 117L265 117L265 118L261 118L261 119L258 119L258 120L254 120L254 121L251 121L251 122L248 122L248 123L242 124L242 125L240 125L240 126L238 126L238 127L235 127L235 128L233 128L233 129L231 129L231 130L229 130L229 131L226 131L226 132L224 132L224 130L222 129L222 127L220 126L220 124L219 124L219 122L218 122L218 120L219 120L219 119L222 119L222 118L225 118L225 117L228 117L228 116L234 115L234 114L238 114L238 113L242 113L242 112L246 112L246 111L250 111L250 110L262 109L262 108L273 108ZM329 112L335 112L335 113L337 113L337 114L339 114L339 115L341 115L341 116L345 117L346 119L350 120L350 121L351 121L351 122L352 122L352 123L353 123L353 124L354 124L354 125L356 126L356 128L357 128L357 130L358 130L358 133L359 133L359 138L358 138L358 141L357 141L357 143L356 143L356 144L355 144L355 145L354 145L354 146L353 146L353 147L352 147L351 149L349 149L349 150L346 150L346 149L347 149L347 147L348 147L348 139L347 139L346 135L345 135L345 134L344 134L344 133L343 133L343 132L342 132L342 131L341 131L341 130L340 130L340 129L338 128L338 127L336 127L336 126L335 126L335 125L333 125L332 123L330 123L330 122L328 122L328 121L326 121L326 120L324 120L324 119L322 119L322 118L320 118L320 117L319 117L319 116L321 116L321 115L325 115L325 114L327 114L327 113L329 113ZM203 125L206 125L206 126L207 126L207 128L208 128L208 130L209 130L209 131L210 131L210 133L212 134L213 138L212 138L211 140L208 140L207 142L205 142L205 143L203 143L203 144L199 145L199 146L198 146L198 147L197 147L197 148L196 148L195 150L193 150L193 151L192 151L191 153L189 153L189 154L188 154L187 156L185 156L184 158L182 158L182 159L181 159L181 160L179 160L178 162L174 163L173 165L171 165L170 167L168 167L168 168L167 168L167 169L165 169L164 171L160 172L159 174L155 175L154 177L152 177L151 179L147 180L146 182L144 182L143 184L139 185L138 187L134 188L133 190L131 190L131 191L129 191L128 193L126 193L126 194L122 195L121 197L119 197L119 198L115 199L114 201L112 201L112 202L109 202L109 203L106 203L106 204L87 204L87 203L83 203L83 202L80 202L80 201L76 200L75 198L73 198L72 196L70 196L70 195L69 195L69 194L67 193L67 190L68 190L68 189L70 189L70 188L72 188L72 187L76 186L77 184L79 184L79 183L81 183L81 182L83 182L83 181L87 180L88 178L90 178L90 177L92 177L92 176L94 176L94 175L96 175L96 174L98 174L98 173L100 173L100 172L102 172L102 171L104 171L104 170L106 170L106 169L108 169L108 168L110 168L110 167L112 167L112 166L114 166L114 165L118 164L118 163L120 163L120 162L122 162L122 161L124 161L124 160L126 160L126 159L128 159L128 158L130 158L130 157L132 157L132 156L134 156L134 155L136 155L136 154L138 154L138 153L142 152L142 151L145 151L145 150L147 150L147 149L149 149L149 148L151 148L151 147L153 147L153 146L156 146L156 145L158 145L158 144L160 144L160 143L162 143L162 142L164 142L164 141L167 141L167 140L169 140L169 139L171 139L171 138L174 138L174 137L176 137L176 136L178 136L178 135L181 135L181 134L183 134L183 133L186 133L186 132L188 132L188 131L190 131L190 130L193 130L193 129L195 129L195 128L198 128L198 127L200 127L200 126L203 126ZM314 128L317 128L317 129L325 129L325 130L329 130L329 131L332 131L332 132L334 132L334 131L335 131L335 132L337 132L337 133L336 133L336 134L332 134L332 133L311 133L311 134L306 134L306 135L300 136L300 137L298 137L298 138L296 138L296 139L293 139L292 141L288 142L287 144L283 145L282 147L280 147L279 149L277 149L276 151L274 151L274 152L273 152L272 154L270 154L270 155L269 155L269 156L268 156L268 157L267 157L266 159L264 159L264 160L263 160L263 161L262 161L262 162L261 162L261 163L260 163L260 164L259 164L259 165L258 165L258 166L257 166L256 168L254 168L254 167L253 167L253 166L252 166L252 165L251 165L251 164L250 164L250 163L249 163L249 162L247 161L247 158L248 158L248 157L250 157L250 156L251 156L251 155L252 155L253 153L255 153L255 152L256 152L257 150L259 150L260 148L262 148L262 147L263 147L263 146L265 146L266 144L268 144L268 143L270 143L270 142L272 142L272 141L276 140L276 139L277 139L277 138L279 138L279 137L282 137L282 136L284 136L284 135L286 135L286 134L289 134L289 133L291 133L291 132L294 132L294 131L298 131L298 130L303 130L303 129L314 129ZM236 169L239 169L239 170L240 170L240 171L241 171L241 172L242 172L242 173L243 173L243 174L244 174L244 175L246 176L246 180L245 180L245 181L243 182L243 184L241 185L241 187L239 188L239 190L238 190L238 191L236 192L236 194L234 195L234 197L232 198L232 200L230 201L230 203L228 204L228 206L226 207L226 209L224 210L224 212L222 213L222 215L220 216L220 218L219 218L219 219L218 219L218 221L216 222L215 226L214 226L214 227L213 227L213 229L211 230L210 234L208 235L207 239L205 240L204 244L202 245L201 249L199 250L199 252L198 252L197 256L195 257L195 259L194 259L194 261L193 261L192 265L190 266L190 268L189 268L189 270L188 270L188 272L187 272L187 274L186 274L185 278L183 279L183 281L182 281L182 283L181 283L181 285L180 285L180 287L179 287L179 289L178 289L178 291L177 291L176 295L175 295L175 296L172 296L172 295L170 294L170 292L169 292L169 291L167 290L167 288L166 288L166 286L165 286L165 284L164 284L164 282L163 282L163 280L162 280L162 277L161 277L161 272L160 272L160 261L161 261L161 256L162 256L162 252L163 252L163 250L164 250L164 247L165 247L165 245L167 244L167 242L169 241L169 239L170 239L170 238L171 238L171 237L172 237L172 236L173 236L173 235L175 234L175 232L176 232L176 231L177 231L177 230L178 230L178 229L179 229L179 228L180 228L180 227L182 226L182 224L183 224L183 223L184 223L184 222L185 222L185 221L186 221L186 220L187 220L187 219L188 219L188 218L189 218L189 217L190 217L190 216L192 215L192 213L193 213L193 212L194 212L194 211L195 211L195 210L196 210L196 209L197 209L197 208L198 208L198 207L199 207L199 206L200 206L200 205L201 205L201 204L202 204L202 203L203 203L203 202L205 201L205 199L206 199L206 198L207 198L207 197L208 197L208 196L209 196L209 195L210 195L210 194L211 194L211 193L212 193L212 192L213 192L213 191L214 191L214 190L215 190L215 189L216 189L216 188L217 188L217 187L218 187L218 186L219 186L219 185L221 184L221 183L223 183L224 181L226 181L226 180L227 180L227 179L229 178L229 176L230 176L230 175L231 175L231 174L232 174L232 173L233 173L233 172L234 172L234 171L235 171Z"></path>
</svg>